<?xml version="1.0" encoding="UTF-8"?><svg id="Livello_2" xmlns="http://www.w3.org/2000/svg" xmlns:xlink="http://www.w3.org/1999/xlink" viewBox="0 0 995.67 1000"><defs><style>.cls-1{fill:none;}.cls-2{clip-path:url(#clippath);}.cls-3{fill:#eb662e;}.cls-4{fill:#e86626;}.cls-5{fill:#fff;}.cls-6{fill:#12a3de;}</style><clipPath id="clippath"><rect class="cls-1" width="995.67" height="1000"/></clipPath></defs><g id="Livello_1-2"><g class="cls-2"><path class="cls-3" d="M390.2,794.99c-6.75-.04-13.45-.19-20.11-.4,6,.11,12.04,.17,18.11,.17,8.13,0,16.17-.11,24.17-.3-7.35,.29-14.72,.49-22.17,.53m386.19-151.14c0-83.35-173.79-150.91-388.19-150.91S0,560.49,0,643.85c0,8.71,5.58,121.51,5.58,121.51,0,14.28,2.81,28.09,9.92,40.29,7.11,12.22,16.94,22.79,29.91,30.59,79.08,47.45,203.11,78.51,340.02,78.51,1.62,0,3.09-.02,4.71-.03,1.61,0,3.15,.03,4.77,.03,136.9,0,261.18-31.07,340.25-78.51,12.98-7.8,22.44-18.37,29.55-30.59,7.11-12.2,10.11-26.01,10.11-40.29v-107.97c1.02-4.46,1.57-8.98,1.57-13.54"/><path class="cls-5" d="M732.76,608.05c0,71.04-153.47,128.62-342.8,128.62S47.17,679.09,47.17,608.05s153.47-128.63,342.79-128.63,342.8,57.59,342.8,128.63"/><path class="cls-3" d="M390.2,545.66c-6.76-.03-13.46-.19-20.13-.4,6,.11,12.05,.17,18.13,.17,8.13,0,16.19-.11,24.2-.3-7.36,.29-14.74,.49-22.2,.53m386.19-151.14c0-83.34-173.79-150.91-388.19-150.91S0,311.17,0,394.52c0,8.72,5.58,121.51,5.58,121.51,0,14.28,2.81,28.09,9.92,40.28,7.11,12.23,16.94,22.8,29.91,30.6,79.08,47.45,203.11,78.51,340.02,78.51,1.62,0,3.09-.02,4.71-.03,1.61,0,3.15,.03,4.77,.03,136.9,0,261.18-31.07,340.25-78.51,12.98-7.8,22.44-18.37,29.55-30.6,7.11-12.19,10.11-26,10.11-40.28v-107.97c1.02-4.45,1.57-8.98,1.57-13.54"/><path class="cls-5" d="M732.76,358.72c0,71.04-153.47,128.63-342.8,128.63S47.17,429.76,47.17,358.72,200.64,230.1,389.96,230.1s342.8,57.58,342.8,128.62"/><path class="cls-3" d="M781.69,150.91C781.69,67.57,607.89,0,393.49,0S5.3,67.57,5.3,150.91c0,7.79,.28,119.74,.28,119.74,0,14.28,2.81,28.09,9.92,40.29,7.11,12.22,16.94,22.79,29.91,30.59,79.08,47.45,203.11,78.51,340.02,78.51h9.48c136.9,0,261.18-31.07,340.25-78.51,12.98-7.8,22.44-18.37,29.55-30.59,7.11-12.2,10.11-26.01,10.11-40.29,0,0,6.87-110.04,6.87-119.74"/><path class="cls-6" d="M628.54,420.72L322.35,951.05c-12.56,21.75,3.14,48.95,28.26,48.95H962.98c25.12,0,40.82-27.19,28.26-48.95L685.06,420.72c-12.56-21.75-43.96-21.75-56.52,0"/><path class="cls-5" d="M389.15,935.12l258.98-448.57c3.85-6.67,13.47-6.67,17.32,0l258.98,448.57c3.85,6.67-.96,15-8.66,15H397.81c-7.7,0-12.51-8.33-8.66-15"/><path class="cls-4" d="M630.02,802.41l-9.95-213.28h72.52l-9.5,213.28h-53.07Zm-11.39,69.69c0-20.86,17.06-38.4,37.92-38.4s38.4,17.55,38.4,38.4-17.54,37.92-38.4,37.92-37.92-17.54-37.92-37.92"/></g></g></svg>