<?xml version="1.0" encoding="UTF-8"?><svg id="Livello_2" xmlns="http://www.w3.org/2000/svg" viewBox="0 0 1000 906.18"><defs><style>.cls-1{fill:#fff;}.cls-2{fill:#ea6727;}.cls-3,.cls-4,.cls-5{fill:#11a3de;}.cls-4{stroke-width:10.49px;}.cls-4,.cls-5{stroke:#fff;stroke-linecap:round;stroke-linejoin:round;}.cls-5{stroke-width:14.37px;}</style></defs><g id="Livello_1-2"><g><g><path class="cls-2" d="M979.81,867.8h-160.94c-1.05-1.3-2.26-2.48-3.63-3.53l-304.47-231.32c-7.54-5.73-18-5.7-25.5,.08l-300.61,231.32c-1.33,1.02-2.51,2.18-3.53,3.45H19.19c-10.6,0-19.19,8.59-19.19,19.19H0c0,10.6,8.59,19.19,19.19,19.19H979.81c10.6,0,19.19-8.59,19.19-19.19h0c0-10.6-8.59-19.19-19.19-19.19Z"/><g><path class="cls-2" d="M60.17,0H939.87C973.06,0,1000,26.94,1000,60.13V692.84c0,33.18-26.94,60.13-60.13,60.13H60.17C26.98,752.97,.04,726.03,.04,692.84V60.13C.04,26.94,26.98,0,60.17,0Z"/><path class="cls-3" d="M986.63,556.73H13.41c-7.38,0-13.37,5.98-13.37,13.37v124.15c0,32.38,26.34,58.72,58.72,58.72H941.27c32.38,0,58.72-26.34,58.72-58.72v-124.15c0-7.38-5.98-13.37-13.37-13.37Z"/><rect class="cls-1" y="556.16" width="1000" height="27.78"/></g></g><g><path class="cls-3" d="M162.21,383.88c.06-.77,.13-1.54,.13-2.31V194.12c0-13.03-8.55-24.58-23-24.58h-1.2c-13.85,0-23,11.55-23,24.58v34.39h18.48c2.99,0,5.42,2.43,5.42,5.42s-2.42,5.42-5.42,5.42h-18.48v18.06h18.48c2.99,0,5.42,2.43,5.42,5.43s-2.42,5.41-5.42,5.41h-18.48v18.08h18.48c2.99,0,5.42,2.42,5.42,5.42s-2.42,5.42-5.42,5.42h-18.48v18.06h18.48c2.99,0,5.42,2.43,5.42,5.43s-2.42,5.42-5.42,5.42h-18.48v18.07h18.48c2.99,0,5.42,2.42,5.42,5.41s-2.42,5.43-5.42,5.43h-18.48v26.59c0,.78,.06,1.54,.12,2.31-7.82,3.01-30.22,16.87-30.22,46.56s23.18,52.6,52.04,53.34c.44,.41,2.87,.41,3.31,0,28.86-.73,52.06-24.3,52.06-53.34s-22.39-43.55-30.22-46.56Z"/><path class="cls-1" d="M184.04,374.37c.08-1.04,.17-2.08,.17-3.14V194.4c0-22.63-16.04-42.87-38.45-46.1-27.92-4.03-51.91,17.52-51.91,44.69v178.25c0,1.06,.09,2.1,.17,3.14-16.87,13.47-27.61,34.29-27.24,57.63,.59,37.68,31.18,69.3,68.82,71.04,41.47,1.92,75.69-31.14,75.69-72.19,0-22.88-10.66-43.23-27.25-56.48Zm-43.66,109.41c-.44,.41-2.87,.41-3.31,0-28.86-.73-52.04-24.3-52.04-53.34s22.39-43.55,30.22-46.56c-.06-.77-.12-1.54-.12-2.31v-26.59h18.48c2.99,0,5.42-2.43,5.42-5.43s-2.42-5.41-5.42-5.41h-18.48v-18.07h18.48c2.99,0,5.42-2.43,5.42-5.42s-2.42-5.43-5.42-5.43h-18.48v-18.06h18.48c2.99,0,5.42-2.43,5.42-5.42s-2.42-5.42-5.42-5.42h-18.48v-18.08h18.48c2.99,0,5.42-2.42,5.42-5.41s-2.42-5.43-5.42-5.43h-18.48v-18.06h18.48c2.99,0,5.42-2.44,5.42-5.42s-2.42-5.42-5.42-5.42h-18.48v-34.39c0-13.03,9.16-24.58,23-24.58h1.2c14.45,0,23,11.55,23,24.58v187.45c0,.78-.06,1.54-.13,2.31,7.83,3.01,30.22,16.87,30.22,46.56s-23.19,52.6-52.06,53.34Z"/></g><g><circle class="cls-3" cx="470.7" cy="238.41" r="184.64"/><g><path class="cls-1" d="M470.5,51.39c-108.04,0-194.66,91.24-187.15,200.8,6.33,92.48,81.19,167.45,173.66,173.92,109.65,7.67,201.06-79.03,201.06-187.14S574.06,51.39,470.5,51.39m0,355.55c-92.52,0-167.44-74.97-167.44-167.42s80.6-172.93,177.82-167.08c83.35,5.02,151.27,72.75,156.58,156.09,6.22,97.43-70.92,178.41-166.96,178.41"/><path class="cls-1" d="M599.8,284.29l11.39,4.78c5.13-14.35,8.12-29.67,8.61-45.65h-11.78c-3.54,0-6.41-2.87-6.41-6.41s2.87-6.41,6.41-6.41h11.59c-.84-15.39-3.97-30.14-9.12-43.94l-10.29,4.21c-.79,.33-1.62,.48-2.43,.48-2.52,0-4.91-1.51-5.93-3.99-1.33-3.27,.24-7.01,3.51-8.36l10.16-4.15c-6.66-14-15.37-26.78-25.82-37.97l-7.42,7.41c-1.25,1.26-2.89,1.88-4.53,1.88s-3.28-.62-4.53-1.88c-2.5-2.5-2.5-6.56,0-9.06l7.33-7.33c-11-9.93-23.45-18.23-37.04-24.56l-3.91,9.32c-1.02,2.45-3.4,3.93-5.91,3.93-.83,0-1.67-.16-2.48-.5-3.26-1.37-4.8-5.12-3.43-8.39l3.88-9.24c-14.06-5.13-29.07-8.19-44.74-8.85v9.87c0,3.54-2.87,6.41-6.41,6.41s-6.41-2.87-6.41-6.41v-9.87c-15.22,.64-29.82,3.53-43.53,8.4l3.8,9.29c1.34,3.28-.23,7.01-3.51,8.36-.79,.32-1.61,.48-2.42,.48-2.53,0-4.92-1.5-5.94-3.98l-3.83-9.36c-14.05,6.4-26.89,14.91-38.21,25.12l7.34,7.34c2.51,2.51,2.51,6.56,0,9.06-1.25,1.25-2.89,1.88-4.53,1.88s-3.28-.63-4.53-1.88l-7.42-7.42c-10.16,10.88-18.68,23.26-25.25,36.79l10.1,4.23c3.26,1.37,4.8,5.13,3.43,8.39-1.03,2.46-3.41,3.93-5.91,3.93-.83,0-1.67-.16-2.48-.5l-10.25-4.3c-5.42,14.16-8.7,29.32-9.56,45.17h11.59c3.54,0,6.41,2.87,6.41,6.41s-2.87,6.41-6.41,6.41h-11.78c.47,15.53,3.3,30.43,8.15,44.42l11.44-4.68c3.3-1.35,7.02,.24,8.36,3.51,1.34,3.28-.23,7.02-3.51,8.36l-11.61,4.75c23.34,52.18,75.61,88.59,136.47,88.59s112.3-35.88,135.91-87.42l-11.55-4.84c-3.27-1.37-4.8-5.12-3.43-8.38,1.36-3.27,5.12-4.81,8.39-3.43Zm-106.17-15.47l-.95,.19c.47,7.52-5.96,14.83-15.49,16.69-9.52,1.84-18.26-2.53-20.66-9.67l-.94,.18-8.25-143.96,46.28,136.57Z"/></g></g><g><path class="cls-5" d="M832.41,400.91h41.09c10.76,0,21.45-11,21.48-21.76,.1-36.86,23.34-52.76,36.21-86,22.69-58.59-5.77-147.44-98.78-147.44s-121.47,88.85-98.78,147.44c12.87,33.24,36.11,49.14,36.21,86,.03,10.76,10.72,21.76,21.48,21.76h41.09"/><path class="cls-1" d="M852.17,399.68c-.01-.57-.9-50.02,1.01-87.91,31.3-5.23,51.08-22.18,57.46-39.04,4.6-12.15,2.16-23.95-6.51-31.57-8.18-7.19-18.3-8.9-28.5-4.79-18.09,7.27-32.34,31.12-34.64,58.01-.15,1.76-.29,3.58-.43,5.44-2.53,.17-5.13,.26-7.81,.26-.11,0-.22-.01-.32,0h-.02c-2.77,.02-5.49-.08-8.11-.26-.13-1.86-.28-3.68-.43-5.44-2.31-26.88-16.55-50.74-34.65-58.01-10.2-4.1-20.32-2.4-28.5,4.79-8.67,7.62-11.11,19.42-6.51,31.57,6.38,16.86,26.15,33.8,57.46,39.04,1.9,37.89,1.01,87.34,1,87.91-.07,3.68,2.86,6.72,6.54,6.78,.04,0,.08,0,.13,0,3.62,0,6.59-2.9,6.66-6.54,.04-2.3,.88-48.98-.91-86.7,2.38,.13,4.83,.17,7.32,.18h.06c2.5,.01,4.93-.05,7.32-.18-1.79,37.71-.95,84.4-.91,86.7,.07,3.64,3.04,6.54,6.66,6.54,.04,0,.08,0,.13,0,3.68-.07,6.61-3.11,6.54-6.78Zm2.08-104.16c2.11-24.61,14.85-42.17,26.34-46.78,1.99-.8,3.91-1.2,5.76-1.2,3.22,0,6.23,1.21,8.99,3.63,6.02,5.29,4.37,12.82,2.84,16.84-4.62,12.21-19.89,25.12-44.13,30.02,.07-.85,.14-1.69,.21-2.52Zm-87.59-27.5c-1.52-4.02-3.18-11.56,2.84-16.85,2.75-2.42,5.76-3.63,8.99-3.63,1.85,0,3.77,.4,5.75,1.2,11.49,4.62,24.23,22.17,26.34,46.78,.07,.83,.14,1.67,.21,2.52-24.23-4.9-39.51-17.81-44.13-30.02Z"/><path class="cls-4" d="M888.83,433.21c0-3.61-2.93-6.54-6.54-6.54h-99.77c-3.61,0-6.54,2.93-6.54,6.54s2.93,6.54,6.54,6.54h3.76c-2.28,.88-3.93,3.01-3.93,5.61,0,3.39,2.75,6.14,6.14,6.14h1.93c-2.22,.89-3.8,3.04-3.8,5.58,0,3.33,2.7,6.03,6.03,6.03h5.79c-2.64,.48-4.67,2.69-4.67,5.47,0,3.13,2.54,5.67,5.67,5.67h4.23c-1.52,.82-2.59,2.35-2.59,4.21,0,9.86,8.9,24.53,33.44,24.53s33.43-14.67,33.43-24.53c0-1.86-1.07-3.39-2.59-4.21h3.68c3.13,0,5.67-2.54,5.67-5.67,0-2.78-2.04-4.98-4.67-5.47h1.61c3.33,0,6.03-2.7,6.03-6.03,0-2.54-1.58-4.69-3.8-5.58h2.46c3.39,0,6.14-2.75,6.14-6.14,0-2.6-1.65-4.72-3.93-5.61h3.76c3.61,0,6.54-2.93,6.54-6.54Z"/></g></g></g></svg>